<mxfile host="app.diagrams.net" modified="2024-01-28T16:08:39.597Z" agent="Mozilla/5.0 (Windows NT 10.0; Win64; x64) AppleWebKit/537.36 (KHTML, like Gecko) Chrome/120.0.0.0 Safari/537.36" etag="fEWqF-1cobbB0BaVS_Ig" version="23.0.2" type="github">
  <diagram name="Page-1" id="AMWf6i2rP1up5rqTsDDn">
    <mxGraphModel dx="882" dy="446" grid="1" gridSize="10" guides="1" tooltips="1" connect="1" arrows="1" fold="1" page="1" pageScale="1" pageWidth="827" pageHeight="1169" math="0" shadow="0">
      <root>
        <mxCell id="0" />
        <mxCell id="1" parent="0" />
        <mxCell id="Czgd15TpuvzbRgCxB4MM-102" value="" style="endArrow=classic;html=1;rounded=0;exitX=0.5;exitY=1;exitDx=0;exitDy=0;entryX=1;entryY=0.25;entryDx=0;entryDy=0;" edge="1" parent="1" source="Czgd15TpuvzbRgCxB4MM-96" target="Czgd15TpuvzbRgCxB4MM-110">
          <mxGeometry width="50" height="50" relative="1" as="geometry">
            <mxPoint x="250" y="1380" as="sourcePoint" />
            <mxPoint x="490" y="1660" as="targetPoint" />
            <Array as="points">
              <mxPoint x="384" y="1420" />
              <mxPoint x="680" y="1420" />
              <mxPoint x="680" y="1480" />
              <mxPoint x="680" y="1650" />
            </Array>
          </mxGeometry>
        </mxCell>
        <mxCell id="Czgd15TpuvzbRgCxB4MM-115" value="" style="rounded=0;whiteSpace=wrap;html=1;" vertex="1" parent="1">
          <mxGeometry x="493.13" y="1390" width="120" height="60" as="geometry" />
        </mxCell>
        <mxCell id="Czgd15TpuvzbRgCxB4MM-31" value="" style="strokeWidth=2;html=1;shape=mxgraph.flowchart.terminator;whiteSpace=wrap;" vertex="1" parent="1">
          <mxGeometry x="332.5" y="100" width="100" height="60" as="geometry" />
        </mxCell>
        <mxCell id="Czgd15TpuvzbRgCxB4MM-2" value="Start" style="text;html=1;strokeColor=none;fillColor=none;align=center;verticalAlign=middle;whiteSpace=wrap;rounded=0;" vertex="1" parent="1">
          <mxGeometry x="350" y="115" width="60" height="30" as="geometry" />
        </mxCell>
        <mxCell id="Czgd15TpuvzbRgCxB4MM-4" value="" style="rounded=0;whiteSpace=wrap;html=1;" vertex="1" parent="1">
          <mxGeometry x="320" y="200" width="120" height="60" as="geometry" />
        </mxCell>
        <mxCell id="Czgd15TpuvzbRgCxB4MM-5" value="BUFFER 1024" style="text;html=1;strokeColor=none;fillColor=none;align=center;verticalAlign=middle;whiteSpace=wrap;rounded=0;" vertex="1" parent="1">
          <mxGeometry x="350" y="215" width="60" height="30" as="geometry" />
        </mxCell>
        <mxCell id="Czgd15TpuvzbRgCxB4MM-6" value="" style="rounded=0;whiteSpace=wrap;html=1;" vertex="1" parent="1">
          <mxGeometry x="320" y="310" width="120" height="60" as="geometry" />
        </mxCell>
        <mxCell id="Czgd15TpuvzbRgCxB4MM-7" value="Memory Allocation for BUFFER" style="text;html=1;strokeColor=none;fillColor=none;align=center;verticalAlign=middle;whiteSpace=wrap;rounded=0;" vertex="1" parent="1">
          <mxGeometry x="325" y="325" width="110" height="30" as="geometry" />
        </mxCell>
        <mxCell id="Czgd15TpuvzbRgCxB4MM-8" value="" style="rhombus;whiteSpace=wrap;html=1;" vertex="1" parent="1">
          <mxGeometry x="300" y="420" width="160" height="150" as="geometry" />
        </mxCell>
        <mxCell id="Czgd15TpuvzbRgCxB4MM-9" value="Loop through to the end of the string to be formatted" style="text;html=1;strokeColor=none;fillColor=none;align=center;verticalAlign=middle;whiteSpace=wrap;rounded=0;rotation=-20;" vertex="1" parent="1">
          <mxGeometry x="490" y="400" width="162.5" height="50" as="geometry" />
        </mxCell>
        <mxCell id="Czgd15TpuvzbRgCxB4MM-10" value="while format[i] != &#39;\0&#39;" style="text;html=1;strokeColor=none;fillColor=none;align=center;verticalAlign=middle;whiteSpace=wrap;rounded=0;" vertex="1" parent="1">
          <mxGeometry x="322.5" y="470" width="115" height="50" as="geometry" />
        </mxCell>
        <mxCell id="Czgd15TpuvzbRgCxB4MM-11" value="" style="rhombus;whiteSpace=wrap;html=1;" vertex="1" parent="1">
          <mxGeometry x="310" y="620" width="145" height="130" as="geometry" />
        </mxCell>
        <mxCell id="Czgd15TpuvzbRgCxB4MM-13" value="if format[i] == &#39;%&#39;" style="text;html=1;strokeColor=none;fillColor=none;align=center;verticalAlign=middle;whiteSpace=wrap;rounded=0;" vertex="1" parent="1">
          <mxGeometry x="327.5" y="660" width="115" height="50" as="geometry" />
        </mxCell>
        <mxCell id="Czgd15TpuvzbRgCxB4MM-15" value="if format[i + 1] == &#39;c&#39;" style="text;html=1;strokeColor=none;fillColor=none;align=center;verticalAlign=middle;whiteSpace=wrap;rounded=0;" vertex="1" parent="1">
          <mxGeometry x="328.75" y="830" width="115" height="50" as="geometry" />
        </mxCell>
        <mxCell id="Czgd15TpuvzbRgCxB4MM-16" value="" style="rhombus;whiteSpace=wrap;html=1;" vertex="1" parent="1">
          <mxGeometry x="311.25" y="800" width="145" height="130" as="geometry" />
        </mxCell>
        <mxCell id="Czgd15TpuvzbRgCxB4MM-17" value="if format[i + 1] == &#39;c&#39;" style="text;html=1;strokeColor=none;fillColor=none;align=center;verticalAlign=middle;whiteSpace=wrap;rounded=0;" vertex="1" parent="1">
          <mxGeometry x="328.75" y="840" width="115" height="50" as="geometry" />
        </mxCell>
        <mxCell id="Czgd15TpuvzbRgCxB4MM-18" value="" style="rhombus;whiteSpace=wrap;html=1;" vertex="1" parent="1">
          <mxGeometry x="303.75" y="1000" width="160" height="150" as="geometry" />
        </mxCell>
        <mxCell id="Czgd15TpuvzbRgCxB4MM-19" value="else if format[i + 1] == &#39;s&#39;" style="text;html=1;strokeColor=none;fillColor=none;align=center;verticalAlign=middle;whiteSpace=wrap;rounded=0;" vertex="1" parent="1">
          <mxGeometry x="317.5" y="1045" width="132.5" height="60" as="geometry" />
        </mxCell>
        <mxCell id="Czgd15TpuvzbRgCxB4MM-22" value="" style="endArrow=classic;html=1;rounded=0;entryX=0.5;entryY=0;entryDx=0;entryDy=0;" edge="1" parent="1" target="Czgd15TpuvzbRgCxB4MM-4">
          <mxGeometry width="50" height="50" relative="1" as="geometry">
            <mxPoint x="380" y="160" as="sourcePoint" />
            <mxPoint x="440" y="310" as="targetPoint" />
          </mxGeometry>
        </mxCell>
        <mxCell id="Czgd15TpuvzbRgCxB4MM-25" value="" style="endArrow=classic;html=1;rounded=0;exitX=0.5;exitY=1;exitDx=0;exitDy=0;" edge="1" parent="1" source="Czgd15TpuvzbRgCxB4MM-4" target="Czgd15TpuvzbRgCxB4MM-6">
          <mxGeometry width="50" height="50" relative="1" as="geometry">
            <mxPoint x="390" y="170" as="sourcePoint" />
            <mxPoint x="390" y="210" as="targetPoint" />
          </mxGeometry>
        </mxCell>
        <mxCell id="Czgd15TpuvzbRgCxB4MM-26" value="" style="endArrow=classic;html=1;rounded=0;exitX=0.5;exitY=1;exitDx=0;exitDy=0;entryX=0.5;entryY=0;entryDx=0;entryDy=0;" edge="1" parent="1" source="Czgd15TpuvzbRgCxB4MM-6" target="Czgd15TpuvzbRgCxB4MM-8">
          <mxGeometry width="50" height="50" relative="1" as="geometry">
            <mxPoint x="390" y="390" as="sourcePoint" />
            <mxPoint x="440" y="340" as="targetPoint" />
          </mxGeometry>
        </mxCell>
        <mxCell id="Czgd15TpuvzbRgCxB4MM-32" value="" style="strokeWidth=2;html=1;shape=mxgraph.flowchart.annotation_2;align=left;labelPosition=right;pointerEvents=1;rotation=-19;" vertex="1" parent="1">
          <mxGeometry x="431.25" y="425" width="117.5" height="55" as="geometry" />
        </mxCell>
        <mxCell id="Czgd15TpuvzbRgCxB4MM-34" value="Allocate memory from the heap to&amp;nbsp; store final formatted string to output" style="text;html=1;strokeColor=none;fillColor=none;align=center;verticalAlign=middle;whiteSpace=wrap;rounded=0;" vertex="1" parent="1">
          <mxGeometry x="498.13" y="315.5" width="192.5" height="50" as="geometry" />
        </mxCell>
        <mxCell id="Czgd15TpuvzbRgCxB4MM-35" value="" style="endArrow=classic;html=1;rounded=0;exitX=0.5;exitY=1;exitDx=0;exitDy=0;entryX=0.5;entryY=0;entryDx=0;entryDy=0;" edge="1" parent="1" source="Czgd15TpuvzbRgCxB4MM-8" target="Czgd15TpuvzbRgCxB4MM-11">
          <mxGeometry width="50" height="50" relative="1" as="geometry">
            <mxPoint x="390" y="560" as="sourcePoint" />
            <mxPoint x="410" y="610" as="targetPoint" />
          </mxGeometry>
        </mxCell>
        <mxCell id="Czgd15TpuvzbRgCxB4MM-38" value="The size of memory to hold the processing string to printed to stdout" style="text;html=1;strokeColor=none;fillColor=none;align=center;verticalAlign=middle;whiteSpace=wrap;rounded=0;" vertex="1" parent="1">
          <mxGeometry x="488.75" y="205" width="211.25" height="50" as="geometry" />
        </mxCell>
        <mxCell id="Czgd15TpuvzbRgCxB4MM-39" value="" style="strokeWidth=2;html=1;shape=mxgraph.flowchart.annotation_2;align=left;labelPosition=right;pointerEvents=1;" vertex="1" parent="1">
          <mxGeometry x="440" y="205" width="100" height="50" as="geometry" />
        </mxCell>
        <mxCell id="Czgd15TpuvzbRgCxB4MM-43" value="" style="endArrow=classic;html=1;rounded=0;exitX=0.5;exitY=1;exitDx=0;exitDy=0;entryX=0.5;entryY=0;entryDx=0;entryDy=0;" edge="1" parent="1" source="Czgd15TpuvzbRgCxB4MM-16" target="Czgd15TpuvzbRgCxB4MM-18">
          <mxGeometry width="50" height="50" relative="1" as="geometry">
            <mxPoint x="391.25" y="980" as="sourcePoint" />
            <mxPoint x="441.25" y="930" as="targetPoint" />
          </mxGeometry>
        </mxCell>
        <mxCell id="Czgd15TpuvzbRgCxB4MM-96" value="" style="rhombus;whiteSpace=wrap;html=1;" vertex="1" parent="1">
          <mxGeometry x="300" y="1200" width="167.5" height="150" as="geometry" />
        </mxCell>
        <mxCell id="Czgd15TpuvzbRgCxB4MM-97" value="else if format[i + 1] == &#39;%&#39;" style="text;html=1;strokeColor=none;fillColor=none;align=center;verticalAlign=middle;whiteSpace=wrap;rounded=0;" vertex="1" parent="1">
          <mxGeometry x="312.5" y="1217.5" width="142.5" height="115" as="geometry" />
        </mxCell>
        <mxCell id="Czgd15TpuvzbRgCxB4MM-98" value="" style="endArrow=classic;html=1;rounded=0;exitX=0.5;exitY=1;exitDx=0;exitDy=0;" edge="1" parent="1" source="Czgd15TpuvzbRgCxB4MM-18" target="Czgd15TpuvzbRgCxB4MM-96">
          <mxGeometry width="50" height="50" relative="1" as="geometry">
            <mxPoint x="241.25" y="1220" as="sourcePoint" />
            <mxPoint x="291.25" y="1170" as="targetPoint" />
          </mxGeometry>
        </mxCell>
        <mxCell id="Czgd15TpuvzbRgCxB4MM-99" value="" style="endArrow=classic;html=1;rounded=0;exitX=0.5;exitY=1;exitDx=0;exitDy=0;entryX=0.5;entryY=0;entryDx=0;entryDy=0;" edge="1" parent="1" source="Czgd15TpuvzbRgCxB4MM-11" target="Czgd15TpuvzbRgCxB4MM-16">
          <mxGeometry width="50" height="50" relative="1" as="geometry">
            <mxPoint x="270" y="830" as="sourcePoint" />
            <mxPoint x="320" y="780" as="targetPoint" />
          </mxGeometry>
        </mxCell>
        <mxCell id="Czgd15TpuvzbRgCxB4MM-103" value="" style="endArrow=classic;startArrow=classic;html=1;rounded=0;entryX=0;entryY=0.5;entryDx=0;entryDy=0;" edge="1" parent="1" target="Czgd15TpuvzbRgCxB4MM-11">
          <mxGeometry width="50" height="50" relative="1" as="geometry">
            <mxPoint x="320" y="1560" as="sourcePoint" />
            <mxPoint x="150" y="650" as="targetPoint" />
            <Array as="points">
              <mxPoint x="200" y="1560" />
              <mxPoint x="210" y="685" />
            </Array>
          </mxGeometry>
        </mxCell>
        <mxCell id="Czgd15TpuvzbRgCxB4MM-107" value="" style="rounded=0;whiteSpace=wrap;html=1;" vertex="1" parent="1">
          <mxGeometry x="320" y="1530" width="280" height="60" as="geometry" />
        </mxCell>
        <mxCell id="Czgd15TpuvzbRgCxB4MM-108" value="write_to_buffer(buffer, format[i], BUFFER, seek)" style="text;html=1;strokeColor=none;fillColor=none;align=center;verticalAlign=middle;whiteSpace=wrap;rounded=0;" vertex="1" parent="1">
          <mxGeometry x="325" y="1544" width="265" height="30" as="geometry" />
        </mxCell>
        <mxCell id="Czgd15TpuvzbRgCxB4MM-109" value="" style="rounded=0;whiteSpace=wrap;html=1;" vertex="1" parent="1">
          <mxGeometry x="368.75" y="1630" width="120" height="60" as="geometry" />
        </mxCell>
        <mxCell id="Czgd15TpuvzbRgCxB4MM-110" value="i++" style="text;html=1;strokeColor=none;fillColor=none;align=center;verticalAlign=middle;whiteSpace=wrap;rounded=0;" vertex="1" parent="1">
          <mxGeometry x="373.75" y="1645" width="110" height="30" as="geometry" />
        </mxCell>
        <mxCell id="Czgd15TpuvzbRgCxB4MM-111" value="" style="endArrow=classic;html=1;rounded=0;exitX=0.396;exitY=1;exitDx=0;exitDy=0;exitPerimeter=0;" edge="1" parent="1" source="Czgd15TpuvzbRgCxB4MM-107" target="Czgd15TpuvzbRgCxB4MM-109">
          <mxGeometry width="50" height="50" relative="1" as="geometry">
            <mxPoint x="450" y="1640" as="sourcePoint" />
            <mxPoint x="500" y="1590" as="targetPoint" />
          </mxGeometry>
        </mxCell>
        <mxCell id="Czgd15TpuvzbRgCxB4MM-112" value="" style="endArrow=classic;html=1;rounded=0;exitX=0.5;exitY=1;exitDx=0;exitDy=0;entryX=0;entryY=0.5;entryDx=0;entryDy=0;" edge="1" parent="1" source="Czgd15TpuvzbRgCxB4MM-109" target="Czgd15TpuvzbRgCxB4MM-8">
          <mxGeometry width="50" height="50" relative="1" as="geometry">
            <mxPoint x="350" y="1780" as="sourcePoint" />
            <mxPoint x="290" y="490" as="targetPoint" />
            <Array as="points">
              <mxPoint x="430" y="1760" />
              <mxPoint x="70" y="1760" />
              <mxPoint x="90" y="495" />
            </Array>
          </mxGeometry>
        </mxCell>
        <mxCell id="Czgd15TpuvzbRgCxB4MM-114" value="i++" style="text;html=1;strokeColor=none;fillColor=none;align=center;verticalAlign=middle;whiteSpace=wrap;rounded=0;" vertex="1" parent="1">
          <mxGeometry x="490" y="1405" width="110" height="30" as="geometry" />
        </mxCell>
        <mxCell id="Czgd15TpuvzbRgCxB4MM-116" value="" style="endArrow=classic;html=1;rounded=0;exitX=1;exitY=0.5;exitDx=0;exitDy=0;" edge="1" parent="1" source="Czgd15TpuvzbRgCxB4MM-8">
          <mxGeometry width="50" height="50" relative="1" as="geometry">
            <mxPoint x="480" y="530" as="sourcePoint" />
            <mxPoint x="440" y="1920" as="targetPoint" />
            <Array as="points">
              <mxPoint x="880" y="490" />
              <mxPoint x="880" y="1840" />
              <mxPoint x="440" y="1840" />
            </Array>
          </mxGeometry>
        </mxCell>
        <mxCell id="Czgd15TpuvzbRgCxB4MM-119" value="" style="rounded=0;whiteSpace=wrap;html=1;" vertex="1" parent="1">
          <mxGeometry x="350" y="1920" width="150" height="60" as="geometry" />
        </mxCell>
        <mxCell id="Czgd15TpuvzbRgCxB4MM-120" value="write(stdout, buffer, seek)" style="text;html=1;strokeColor=none;fillColor=none;align=center;verticalAlign=middle;whiteSpace=wrap;rounded=0;" vertex="1" parent="1">
          <mxGeometry x="350.13" y="1934" width="145" height="30" as="geometry" />
        </mxCell>
        <mxCell id="Czgd15TpuvzbRgCxB4MM-121" value="" style="rounded=0;whiteSpace=wrap;html=1;" vertex="1" parent="1">
          <mxGeometry x="353.75" y="2030" width="150" height="60" as="geometry" />
        </mxCell>
        <mxCell id="Czgd15TpuvzbRgCxB4MM-122" value="free(buffer)" style="text;html=1;strokeColor=none;fillColor=none;align=center;verticalAlign=middle;whiteSpace=wrap;rounded=0;" vertex="1" parent="1">
          <mxGeometry x="353.88" y="2044" width="145" height="30" as="geometry" />
        </mxCell>
        <mxCell id="Czgd15TpuvzbRgCxB4MM-123" value="" style="endArrow=classic;html=1;rounded=0;exitX=0.5;exitY=1;exitDx=0;exitDy=0;" edge="1" parent="1" source="Czgd15TpuvzbRgCxB4MM-119">
          <mxGeometry width="50" height="50" relative="1" as="geometry">
            <mxPoint x="510" y="2040" as="sourcePoint" />
            <mxPoint x="425" y="2030" as="targetPoint" />
          </mxGeometry>
        </mxCell>
        <mxCell id="Czgd15TpuvzbRgCxB4MM-127" value="" style="rounded=0;whiteSpace=wrap;html=1;" vertex="1" parent="1">
          <mxGeometry x="514.38" y="835" width="275.62" height="60" as="geometry" />
        </mxCell>
        <mxCell id="Czgd15TpuvzbRgCxB4MM-128" value="char_format(buffer, va_arg, buffer_size, seek)" style="text;html=1;strokeColor=none;fillColor=none;align=center;verticalAlign=middle;whiteSpace=wrap;rounded=0;" vertex="1" parent="1">
          <mxGeometry x="516.88" y="850" width="263.12" height="40" as="geometry" />
        </mxCell>
        <mxCell id="Czgd15TpuvzbRgCxB4MM-129" value="" style="endArrow=classic;html=1;rounded=0;exitX=1;exitY=0.5;exitDx=0;exitDy=0;" edge="1" parent="1" source="Czgd15TpuvzbRgCxB4MM-16">
          <mxGeometry width="50" height="50" relative="1" as="geometry">
            <mxPoint x="460" y="865" as="sourcePoint" />
            <mxPoint x="514.4606781186548" y="865" as="targetPoint" />
          </mxGeometry>
        </mxCell>
        <mxCell id="Czgd15TpuvzbRgCxB4MM-130" value="" style="endArrow=classic;html=1;rounded=0;exitX=1;exitY=0.5;exitDx=0;exitDy=0;" edge="1" parent="1" source="Czgd15TpuvzbRgCxB4MM-127">
          <mxGeometry width="50" height="50" relative="1" as="geometry">
            <mxPoint x="810" y="890" as="sourcePoint" />
            <mxPoint x="880" y="865" as="targetPoint" />
          </mxGeometry>
        </mxCell>
        <mxCell id="Czgd15TpuvzbRgCxB4MM-131" value="" style="rounded=0;whiteSpace=wrap;html=1;" vertex="1" parent="1">
          <mxGeometry x="522.13" y="1045" width="275.62" height="60" as="geometry" />
        </mxCell>
        <mxCell id="Czgd15TpuvzbRgCxB4MM-132" value="str_format(buffer, va_arg, buffer_size, seek)" style="text;html=1;strokeColor=none;fillColor=none;align=center;verticalAlign=middle;whiteSpace=wrap;rounded=0;" vertex="1" parent="1">
          <mxGeometry x="524.63" y="1060" width="263.12" height="40" as="geometry" />
        </mxCell>
        <mxCell id="Czgd15TpuvzbRgCxB4MM-133" value="" style="endArrow=classic;html=1;rounded=0;exitX=1;exitY=0.5;exitDx=0;exitDy=0;" edge="1" parent="1">
          <mxGeometry width="50" height="50" relative="1" as="geometry">
            <mxPoint x="463.75" y="1075" as="sourcePoint" />
            <mxPoint x="522.2106781186548" y="1075" as="targetPoint" />
          </mxGeometry>
        </mxCell>
        <mxCell id="Czgd15TpuvzbRgCxB4MM-134" value="" style="endArrow=classic;html=1;rounded=0;exitX=1;exitY=0.5;exitDx=0;exitDy=0;" edge="1" source="Czgd15TpuvzbRgCxB4MM-131" parent="1">
          <mxGeometry width="50" height="50" relative="1" as="geometry">
            <mxPoint x="817.75" y="1100" as="sourcePoint" />
            <mxPoint x="880" y="1075" as="targetPoint" />
          </mxGeometry>
        </mxCell>
        <mxCell id="Czgd15TpuvzbRgCxB4MM-136" value="" style="endArrow=classic;html=1;rounded=0;exitX=1;exitY=0.5;exitDx=0;exitDy=0;" edge="1" parent="1">
          <mxGeometry width="50" height="50" relative="1" as="geometry">
            <mxPoint x="467.5" y="1275" as="sourcePoint" />
            <mxPoint x="525.9606781186548" y="1275" as="targetPoint" />
          </mxGeometry>
        </mxCell>
        <mxCell id="Czgd15TpuvzbRgCxB4MM-137" value="str_format(buffer, va_arg, buffer_size, seek)" style="text;html=1;strokeColor=none;fillColor=none;align=center;verticalAlign=middle;whiteSpace=wrap;rounded=0;" vertex="1" parent="1">
          <mxGeometry x="528.38" y="1260" width="263.12" height="40" as="geometry" />
        </mxCell>
        <mxCell id="Czgd15TpuvzbRgCxB4MM-138" value="" style="rounded=0;whiteSpace=wrap;html=1;" vertex="1" parent="1">
          <mxGeometry x="525.88" y="1245" width="275.62" height="60" as="geometry" />
        </mxCell>
        <mxCell id="Czgd15TpuvzbRgCxB4MM-139" value="" style="endArrow=classic;html=1;rounded=0;exitX=1;exitY=0.5;exitDx=0;exitDy=0;" edge="1" source="Czgd15TpuvzbRgCxB4MM-138" parent="1">
          <mxGeometry width="50" height="50" relative="1" as="geometry">
            <mxPoint x="821.5" y="1300" as="sourcePoint" />
            <mxPoint x="883.75" y="1275" as="targetPoint" />
          </mxGeometry>
        </mxCell>
        <mxCell id="Czgd15TpuvzbRgCxB4MM-140" value="percent_format(buffer, va_arg, buffer_size, seek)" style="text;html=1;strokeColor=none;fillColor=none;align=center;verticalAlign=middle;whiteSpace=wrap;rounded=0;" vertex="1" parent="1">
          <mxGeometry x="531.88" y="1256" width="263.12" height="40" as="geometry" />
        </mxCell>
        <mxCell id="Czgd15TpuvzbRgCxB4MM-141" value="" style="strokeWidth=2;html=1;shape=mxgraph.flowchart.annotation_2;align=left;labelPosition=right;pointerEvents=1;" vertex="1" parent="1">
          <mxGeometry x="439.75" y="315" width="100" height="50" as="geometry" />
        </mxCell>
      </root>
    </mxGraphModel>
  </diagram>
</mxfile>
